<?xml version="1.0" encoding="UTF-8"?>
<svg id="_レイヤー_2" data-name="レイヤー 2" xmlns="http://www.w3.org/2000/svg" viewBox="0 0 87.48 241.93" width="87.48" height="241.93">
  <defs>
    <style>
      .cls-1 {
        fill: #231815;
      }

      .cls-2 {
        fill: #fff;
      }

      .cls-3 {
        fill: #8fc31f;
      }

      .cls-4 {
        fill: #0068b7;
      }
    </style>
  </defs>
  <g id="_キャラクターデザイン" data-name="キャラクターデザイン">
    <g>
      <g>
        <rect class="cls-3" x="42.43" y="24.96" width="2.62" height="36.12"/>
        <path class="cls-3" d="M43.74,24.96c0-13.79,11.18-24.96,24.96-24.96,0,13.79-11.18,24.96-24.96,24.96Z"/>
        <path class="cls-3" d="M43.74,24.96c-13.79,0-24.96-11.18-24.96-24.96,13.79,0,24.96,11.18,24.96,24.96Z"/>
      </g>
      <path class="cls-4" d="M.01,237.48c-.18,2.45,1.68,4.45,4.14,4.45h79.18c2.46,0,4.32-2,4.14-4.45l-14.23-195.29c-.18-2.45-2.33-4.45-4.79-4.45H19.03c-2.46,0-4.61,2-4.79,4.45L.01,237.48Z"/>
      <g>
        <g>
          <circle class="cls-2" cx="28.68" cy="88.17" r="14.77"/>
          <circle class="cls-1" cx="28.68" cy="88.17" r="8.42"/>
        </g>
        <g>
          <circle class="cls-2" cx="58.8" cy="88.17" r="14.77"/>
          <circle class="cls-1" cx="58.8" cy="88.17" r="8.42"/>
        </g>
      </g>
      <rect class="cls-4" x="14.16" y="62.88" width="59.16" height="22.31"/>
    </g>
  </g>
</svg>