<?xml version="1.0" encoding="UTF-8"?>
<svg id="_レイヤー_2" data-name="レイヤー 2" xmlns="http://www.w3.org/2000/svg" xmlns:xlink="http://www.w3.org/1999/xlink" viewBox="0 0 213.05 218.47" width="213.05" height="218.47">
  <defs>
    <style>
      .cls-1 {
        fill: none;
      }

      .cls-2 {
        fill: #231815;
      }

      .cls-3 {
        clip-path: url(#clippath-1);
      }

      .cls-4 {
        fill: #fff;
      }

      .cls-5 {
        fill: #8fc31f;
      }

      .cls-6 {
        fill: #f39800;
      }

      .cls-7 {
        clip-path: url(#clippath);
      }
    </style>
    <clipPath id="clippath">
      <circle class="cls-1" cx="80.28" cy="96.56" r="14.77"/>
    </clipPath>
    <clipPath id="clippath-1">
      <circle class="cls-1" cx="116.61" cy="96.56" r="14.77"/>
    </clipPath>
  </defs>
  <g id="_キャラクターデザイン" data-name="キャラクターデザイン">
    <g>
      <g>
        <rect class="cls-5" x="125.75" y="32.24" width="2.62" height="36.12"/>
        <path class="cls-5" d="M127.06,32.24c0-13.79,11.18-24.96,24.96-24.96,0,13.79-11.18,24.96-24.96,24.96Z"/>
        <path class="cls-5" d="M127.06,32.24c-13.79,0-24.96-11.18-24.96-24.96,13.79,0,24.96,11.18,24.96,24.96Z"/>
      </g>
      <path class="cls-6" d="M38.56,112.59c1.62-1.85,1.62-4.87,0-6.71L.88,62.94c-1.62-1.85-.94-3.26,1.51-3.15l57.06,2.69c2.45.12,4.81-1.77,5.25-4.18L74.78,2.07c.43-2.42,1.96-2.77,3.4-.78l33.48,46.29c1.44,1.99,4.38,2.66,6.54,1.49l50.25-27.18c2.16-1.17,3.39-.19,2.73,2.18l-15.32,55.04c-.66,2.37.65,5.09,2.91,6.05l52.58,22.34c2.26.96,2.26,2.53,0,3.49l-52.58,22.34c-2.26.96-3.57,3.68-2.91,6.05l15.32,55.04c.66,2.37-.57,3.35-2.73,2.18l-50.25-27.18c-2.16-1.17-5.1-.5-6.54,1.49l-33.48,46.29c-1.44,1.99-2.97,1.64-3.4-.78l-10.08-56.23c-.43-2.42-2.79-4.3-5.25-4.18l-57.06,2.69c-2.45.12-3.13-1.3-1.51-3.15l37.68-42.94Z"/>
      <g>
        <circle class="cls-4" cx="80.28" cy="96.56" r="14.77"/>
        <g class="cls-7">
          <rect class="cls-2" x="79.55" y="65.91" width="42.03" height="52.43" transform="translate(-29.82 52.14) rotate(-25.45)"/>
        </g>
      </g>
      <g>
        <circle class="cls-4" cx="116.61" cy="96.56" r="14.77"/>
        <g class="cls-3">
          <rect class="cls-2" x="115.88" y="65.91" width="42.03" height="52.43" transform="translate(-26.3 67.75) rotate(-25.45)"/>
        </g>
      </g>
    </g>
  </g>
</svg>