<?xml version="1.0" encoding="UTF-8"?>
<svg id="_レイヤー_2" data-name="レイヤー 2" xmlns="http://www.w3.org/2000/svg" viewBox="0 0 54.48 34.57" width="54.48" height="34.57">
  <defs>
    <style>
      .cls-1 {
        fill: #a96738;
      }

      .cls-2 {
        fill: #ac6c3e;
      }

      .cls-3 {
        fill: #955628;
      }

      .cls-4 {
        fill: #894f25;
      }

      .cls-5 {
        fill: #333433;
      }
    </style>
  </defs>
  <g id="_レイヤー_1-2" data-name="レイヤー 1">
    <g>
      <g>
        <g>
          <path class="cls-5" d="M1.04,4.12c-.17.29-.29.48-.34.35-.05-.12-.14-.43-.26-.31-.11.12-.05.38,0,.47.05.09.02.41-.13.56-.04-.1-.08-.21-.12-.32,0,0-.57-1.26.25-1.47,0,0,.76.42.59.71Z"/>
          <path class="cls-1" d="M54.18,11.71s0,0,0,0c-.3,1.81-1.04,3.75-2.4,4.78,0,0-.82-2.42-2.22-2.78,0,0,1.81,1.32,1.73,3.11,0,0-.71.77-2.5.66,0,0,.1-1.27-.38-1.78.01.09.24,1.4-.16,1.79,0,0-1.76-.19-3.88-1.46,0,0-3.37-2.24-5.51-1.91h0c.06.08,1.01,1.37,1.58,2.87,0,0,1.05,2.28,1.35,3.61,0,0-.28-.43-.46-.43,0,0,.71,1.91.64,3.24,0,0-.87-.31-.76.25.1.56,1.22,1.94,2.47,2.57,0,0,.89.08.89,1.45s.64,5.25.64,5.25c0,0-.56.41-.51.94.05.54-.36.64-.49.66-.13.03-2.24,0-2.24,0,0,0-1.02.1-.79-.56.23-.66.36-.84.87-1.07.51-.23.71-.38.71-.92,0-.05,0-.12-.02-.22,0-.02,0-.05,0-.07-.03-.19-.08-.43-.16-.72-.01-.05-.03-.11-.05-.17-.11-.36-.28-.77-.51-1.21-.03-.05-.05-.09-.08-.14-.07-.12-.15-.24-.23-.37-.04-.06-.08-.11-.12-.17-.04-.06-.08-.11-.12-.17-.04-.06-.09-.11-.13-.17-.13-.17-.28-.34-.45-.5-.05-.05-.11-.11-.17-.16h0c-.06-.05-.12-.11-.17-.16-.06-.05-.12-.11-.19-.16-.12-.1-.25-.2-.38-.29-.05-.04-.11-.08-.17-.12-.06-.04-.12-.08-.18-.12-.01,0-.02-.01-.03-.02-.06-.04-.13-.08-.19-.11-.07-.04-.13-.08-.21-.11-.08-.04-.16-.08-.24-.12-.08-.04-.15-.07-.23-.11-.4-.18-.78-.35-1.12-.52-2.47-1.24-3.53-2.33-3.93-3.05-.03-.05-.05-.09-.07-.14-.03-.07-.09-.15-.17-.23-.08-.08-.18-.16-.3-.24-.05-.03-.1-.07-.15-.09-.05-.03-.11-.06-.17-.09-.12-.06-.25-.12-.39-.17-.07-.03-.14-.05-.21-.08-.52-.17-1.16-.27-1.84-.23-.04,0-.08,0-.11,0-.05,0-.1,0-.15.01h0c-.06,0-.11.01-.17.03h0c-.05,0-.11.02-.16.03-.05.01-.1.02-.16.03-.05.01-.11.03-.16.04-.15.04-.3.09-.46.14-.04.01-.07.03-.11.04-.04.02-.09.03-.13.05-.29.12-.58.28-.87.47-.05.03-.09.06-.13.09-.04.03-.08.06-.12.09-.06.04-.12.09-.17.14-.04.03-.08.07-.12.1-.06.05-.12.11-.18.16,0,0-.59.57-.9,1.22,0,0-1.15.45-3.52.57,0,0,.79-.71.92-1.07-.05.05-.88.9-2.21,1.17.05-.04.81-.7.86-.97,0,0-1.28,1.07-2.75,1.15l-1.68-.05h0c.02.08.45,1.43.33,2.32,0,0-1.05,1.68-1.15,2.04,0,0-.61-.56-1.17-.51,0,0,.74.41.89.94l-.43,1.3s-.67-.48-1.05-.54c0,0,.76.79.84,1.07,0,0-.79-.36-1.25-.15,0,0-.51.44-.48,1.25.03.82-.33,1.55-1,1.59-.66.04-2.57,0-2.57,0,0,0-.97.06-.59-.52.38-.59.28-.89,1.12-1.15.16-.05.31-.09.44-.14,0,0,0,0,.02,0,.06-.02.11-.04.17-.06,0,0,0,0,.01,0,.43-.18.67-.42.81-1.01.14-.57.23-3.18,0-5.24-.01-.09-.02-.17-.03-.26-.11-.89-.29-1.66-.56-2.07,0,0-1.19-.81-2.4-2-1.1-1.08-2.22-2.48-2.52-3.89,0,0,0,0,0-.01.01-.04.05-.2.1-.41,0,0,0,0,0-.01.07-.36.14-.87.05-1.18-.09-.3-.35-.75-.48-1.24-.09-.34-.12-.7.03-1.03.36-.79.54-7.9-.76-7.42,0,0-1.73.7-2.43.41-.05-.02-.1-.05-.14-.08,0,0-2.31.55-3.37-2.03.15-.15.18-.48.13-.57-.05-.09-.11-.35,0-.47.12-.12.21.18.26.31.05.12.16-.07.33-.35.17-.29-.59-.71-.59-.71.82-.21,2.53-.69,2.85-.73.33-.04,1.26-.67,1.32-1.19,0,0,.05-.31.8-.78.75-.48,1.93-1.01,3.85-.52,0,0,2.16.44,2.56,1.84,0,0,.21.61.73.97.51.36,1.57,2.09,2.08,3.69,0,0,.06,1.36,3,2.69,2.94,1.34,9.18,3.06,14.57,1.42,0,0,.6-.42,2,.24,1.4.67,1.53.1,2.32.08.79-.03,3.04-.15,3.7.05.66.2,9.79-.66,12.54-3.85,0,0,0,0,0,0,0,0,0-.01.01-.02.13-.14.93-1.05.97-1.36,0,0,.48-.77.59.92.11,1.68.3,3.81-.17,4.83Z"/>
          <path class="cls-3" d="M9.4,2.84s.54-.51,1.27,0c.74.51,1.56.82,1.5,1.3-.05.48-.1,1.99,0,2.63.1.64.15.84-.51,1.3-.66.46-2.65,2.24-3.19,1.73-.54-.51-1.61-2.55.59-5.05,0,0,.46-.43.38-.89-.08-.46-.36-.64-.05-1.02Z"/>
        </g>
        <path class="cls-3" d="M13.14,32.55c-.47-.06-.88.04-1.11.11.43-.18.67-.42.81-1.01.14-.57.23-3.18,0-5.24.59,1.8.94,6.22.3,6.14Z"/>
        <path class="cls-3" d="M43.61,32.66c-.55-.07-1.55.25-1.55.25.51-.23.71-.38.71-.92,0-.05,0-.12-.02-.22,0-.02,0-.05,0-.07-.03-.19-.08-.43-.16-.72-.01-.05-.03-.11-.05-.17-.11-.36-.28-.77-.51-1.21-.02-.05-.05-.09-.08-.14-.07-.12-.15-.24-.23-.37-.04-.06-.07-.11-.12-.17-.04-.06-.08-.11-.12-.17-.04-.06-.08-.11-.13-.17-.13-.17-.28-.34-.45-.5-.05-.05-.11-.11-.17-.16h0c-.06-.05-.11-.11-.17-.16-.06-.05-.12-.11-.19-.16-.12-.1-.25-.2-.38-.29-.05-.04-.11-.08-.17-.12-.06-.04-.12-.08-.18-.12-.01,0-.02-.01-.03-.02-.06-.04-.13-.08-.19-.11-.07-.04-.14-.08-.21-.11-.08-.04-.16-.08-.24-.12-.08-.04-.15-.07-.23-.11-.4-.18-.78-.35-1.12-.52,2.14.33,4.2.15,4.44.93.31,1.02,2.09,5.72,1.55,5.65Z"/>
        <path class="cls-3" d="M26.38,20.88c.29-.44.49-.37,0,0h0Z"/>
        <path class="cls-3" d="M33.62,22.9c-.03-.07-.09-.15-.17-.23-.08-.08-.18-.16-.3-.24-.05-.03-.1-.07-.15-.09-.05-.03-.11-.06-.17-.09-.12-.06-.25-.12-.39-.17-.07-.03-.14-.05-.21-.08-.52-.17-1.16-.27-1.84-.23-.04,0-.07,0-.11,0-.05,0-.1,0-.15.01h0c-.06,0-.11.01-.17.03h0c-.05,0-.11.02-.16.03-.05.01-.1.02-.16.03-.05.01-.11.03-.16.04-.15.04-.3.09-.46.14-.04.01-.07.03-.11.04-.04.02-.08.03-.13.05-.29.12-.58.28-.87.47-.05.03-.09.06-.13.09-.04.03-.08.06-.12.09-.06.04-.12.09-.17.14-.04.03-.08.07-.12.1-.06.05-.12.11-.18.16,0,0-.59.57-.9,1.22,0,0-1.15.45-3.52.57,0,0,.79-.71.92-1.07-.05.05-.88.9-2.21,1.17.05-.04.81-.7.86-.97,0,0-1.28,1.07-2.75,1.15l-1.68-.05s-2.22-2.75-1.35-2.33c.88.41,4,.5,7.4-.8,1.34-.51,2.07-.95,2.43-1.22-.04.06-.07.12-.11.2-.56,1.09-1.12,1.65,0,.63,1.12-1.02,3.33-1.85,5.3-1.19,1.96.67,2.06,2.38,2.06,2.38Z"/>
        <path class="cls-3" d="M48.26,17.49s-1.76-.19-3.88-1.46c0,0-3.37-2.24-5.51-1.91,0,0-.86-1.11-1.98-1.63-1.12-.52,2.42-.29,5.19,1.33,2.77,1.62,2.07,2.47,6.18,3.68Z"/>
        <path class="cls-3" d="M9.53,14.47c-1.34,1.13-1.89,2.58-2.09,3.29.07-.36.14-.87.05-1.18-.09-.3-.35-.75-.48-1.24,2.68-1.84,4.29-2.36,2.52-.87Z"/>
        <path class="cls-4" d="M8.88,9.01s-.6-1.25,0-2.44c.6-1.19.61-1.32.84-.54.23.77.81.82,1.12.23.32-.59.58-1.72.7-.45.12,1.26.11,1.95-1.28,2.74-1.39.79-1.31.66-1.39.47Z"/>
      </g>
      <path class="cls-2" d="M5.73,1.94s-.72-.46-.62-.61c.09-.16.3-.58,1.58-.47,1.28.11-.63.53-.8.81l-.16.28Z"/>
      <path class="cls-5" d="M5.09,6.99c-.47.09-.93.22-1.26.32-.05-.02-.1-.05-.14-.08,0,0,1.24-.51,1.41-.78.17-.26.88.37,0,.54Z"/>
      <path class="cls-4" d="M11.66,27.53l1.1.92c-.51-.12-1.94.15-2.08.18.4-.05,1.36.17,1.36.17-.48.11-2.36,1.23-2.57,1.72-.21.49.98.95.53,1.86-.46.91-1.54,1.37-1.89,1.05-.35-.32-1.4-1.51-.7-2.77.59-1.06,2.02-6.78,2.46-8.58,1.22,1.2,2.4,2,2.4,2,.27.41.44,1.17.56,2.07-.44.71-.29,1.38-.29,1.38h-.87Z"/>
      <path class="cls-4" d="M40.67,32.86c-.47.11-.34.49-.41,1.12-.07.63-.32.57-1.32.57s-2.26,0-1.91-.57c.35-.57.67-1.33,1.3-1.22.63.11.98-1.01,0-3.21-.98-2.21-2.28-2.67-4.7-3.46-2.05-.66-3.18-3.44-3.49-4.3.05,0,.1-.01.15-.01.04,0,.08,0,.11,0,.68-.04,1.32.06,1.84.23.07.02.15.05.21.08.14.05.27.11.39.17.06.03.12.06.17.09.05.03.1.06.15.09.12.08.22.16.3.24.08.08.14.16.17.23.02.04.04.09.07.14.4.72,1.46,1.81,3.93,3.05.35.17.72.35,1.12.52.08.04.16.07.23.11.08.04.16.08.24.12.07.04.14.08.21.11.07.04.13.08.19.11.01,0,.02.01.03.02.06.04.12.08.18.12.06.04.12.08.17.12.13.09.26.19.38.29.12,1.85.7,5.16.29,5.25Z"/>
    </g>
  </g>
</svg>