<?xml version="1.0" encoding="UTF-8"?>
<svg id="_レイヤー_2" data-name="レイヤー 2" xmlns="http://www.w3.org/2000/svg" viewBox="0 0 105.28 24.18" width="105.28" height="24.18">
  <defs>
    <style>
      .cls-1 {
        fill: #b6d231;
      }

      .cls-2 {
        fill: #006db7;
      }
    </style>
  </defs>
  <g id="_レイヤー_1-2" data-name="レイヤー 1">
    <g>
      <g>
        <path class="cls-2" d="M16.93,12.29c2.12,2.12,2.12,5.57,0,7.69-1.36,1.36-3.28,1.85-5.04,1.46-.97-.22-1.89-.7-2.65-1.46l-4.2-4.2-3.19-3.19-1.86,1.86,7.39,7.39c1.66,1.66,3.88,2.44,6.06,2.35.36-.02.72-.06,1.07-.12,1.56-.28,3.06-1.02,4.27-2.23,3.14-3.14,3.14-8.25,0-11.4l-1.86,1.86Z"/>
        <path class="cls-1" d="M18.82,2.36C17.16.69,14.95-.09,12.76,0c-.36.02-.72.06-1.07.12-1.56.28-3.06,1.02-4.27,2.23-3.14,3.14-3.14,8.25,0,11.4,2.17,2.17,5.28,2.84,8.03,2.01-.07-.89-.19-1.77-.33-2.66-1.95.77-4.27.37-5.84-1.21-2.12-2.12-2.12-5.57,0-7.69,1.36-1.36,3.28-1.85,5.04-1.46.97.22,1.89.7,2.65,1.46l4.2,4.2,3.15,3.15,1.86-1.86-7.36-7.36Z"/>
        <path class="cls-2" d="M18.78,10.43c-3.14-3.14-8.25-3.14-11.4,0-1.12,1.12-1.84,2.49-2.16,3.93l2.47,2.47c-.21-1.62.3-3.31,1.54-4.55,2.12-2.12,5.57-2.12,7.69,0l1.86-1.86Z"/>
        <path class="cls-1" d="M15.46,15.76c1.23-.37,2.39-1.04,3.37-2.01,1.12-1.12,1.84-2.49,2.16-3.93l-2.47-2.47c.21,1.62-.3,3.31-1.54,4.55-.54.54-1.17.94-1.84,1.21l-.74.62.16,1.78.91.26Z"/>
      </g>
      <g>
        <path class="cls-2" d="M85.73,10.93c-.39-.48-.9-.87-1.49-1.15-.59-.28-1.29-.42-2.07-.42-.37,0-.69.04-.98.11-.28.07-.51.14-.72.22-.12.05-.23.11-.33.16v-2.1c0-.52-.03-.97-.09-1.34-.06-.38-.17-.69-.34-.92-.17-.24-.4-.42-.68-.52-.27-.1-.6-.15-.98-.15h-1.59s.17.28.17.28c0,0,.41.78.39,2.65v11.58h1.04c.65,0,1.26-.51,1.66-1.02l.06-.08c.14.19.31.35.51.5.21.17.48.31.81.43.33.12.72.18,1.16.18.75,0,1.43-.14,2.01-.42.58-.28,1.07-.66,1.46-1.15.39-.49.68-.88.87-1.53.17-.6.28-1.13.28-1.9s-.11-1.29-.28-1.9c-.19-.65-.48-1.05-.88-1.53ZM83.24,16.94c-.15.35-.34.63-.57.82-.22.18-.49.28-.81.28-.29,0-.54-.06-.75-.19-.22-.13-.4-.27-.55-.43-.16-.17-.3-.38-.41-.61v-5.57c.13-.09.26-.17.4-.24.15-.07.32-.13.54-.2.2-.06.43-.1.67-.1.35,0,.65.09.88.28.24.19.45.47.61.84.16.35.27.61.34,1.09.07.5.1.88.1,1.47s-.04.98-.1,1.47c-.07.48-.17.73-.32,1.08v.03Z"/>
        <path class="cls-2" d="M34.42,12.99h0c-1.11-.41-1.79-.68-1.79-1.25,0-.94,1.18-1.01,1.54-1.01,1.02,0,2.34.43,2.88.93l.12.11.03-.16c.13-.87-.03-1.53-.49-1.98-.7-.68-1.89-.82-2.76-.82-1.68,0-4.53.67-4.53,3.16,0,1.7,1.25,2.33,2.43,2.79,1.66.63,2.24.88,2.24,1.51,0,.42-.18.99-1.69.99-1.06,0-2.18-.3-2.84-.76l-.1-.07-.04.11s-.6,1.91,1.18,2.58c.64.24,1.21.24,1.99.24h.1c4.15,0,4.6-2.34,4.6-3.34,0-1.94-1.73-2.58-2.87-3.01Z"/>
        <path class="cls-2" d="M48.06,10.38c-.4-.3-.85-.52-1.36-.63-.49-.12-.98-.17-1.48-.17-.36,0-.7.04-1,.14-.29.08-.54.18-.75.29-.13.07-.26.14-.38.22v-2.44c0-.53-.03-.98-.09-1.34-.06-.38-.17-.69-.34-.92-.17-.24-.4-.42-.68-.52-.27-.1-.6-.15-.98-.15h-1.59s.17.28.17.28c0,0,.42.77.39,2.65v11.57h3.11v-7.75c.13-.1.26-.2.4-.29.14-.09.31-.17.51-.25.39-.15.86-.14,1.24.03.19.09.37.23.53.44.16.21.29.5.39.84.1.35.15.8.15,1.33v4.06c0,.88.71,1.59,1.59,1.59h1.52v-5.73c0-.8-.13-1.47-.38-1.99-.25-.53-.58-.95-.98-1.25Z"/>
        <path class="cls-2" d="M58.47,16.79c-.13.24-.28.44-.44.62-.14.16-.33.3-.54.43-.2.12-.45.18-.74.18-.52,0-.91-.19-1.18-.57-.28-.4-.43-1.12-.43-2.16v-3.52c0-.53-.03-.98-.09-1.34-.06-.38-.17-.69-.34-.92-.17-.24-.4-.42-.68-.52-.27-.1-.6-.15-.98-.15h-1.59s.17.28.17.28c0,0,.42.78.39,2.65v3.5c0,1.41.34,2.45,1.02,3.1.67.64,1.71.97,3.07.97.44,0,.84-.06,1.18-.18.34-.12.63-.26.86-.42.23-.15.44-.33.64-.53l.23.5c.31.4.77.62,1.27.62h1.28v-10.5h-3.11v7.95Z"/>
        <path class="cls-2" d="M70.01,8.85c-.44,0-.84.03-1.18.1-.33.07-.63.15-.88.24-.26.1-.48.21-.67.34-.11.08-.22.15-.31.22-.16-.22-.37-.39-.61-.5-.3-.13-.7-.19-1.2-.19h-1.16s.17.28.17.28c0,0,.41.78.39,2.65v7.36h3.11v-7.52c0-.18,0-.34-.02-.48-.01-.15-.04-.28-.07-.39-.02-.07-.03-.13-.04-.19.16-.14.37-.26.64-.36.31-.12.68-.18,1.11-.18.52,0,.96.19,1.3.57.35.39.52,1.08.52,2.06v4.89c0,.88.71,1.59,1.59,1.59h1.52v-6.43c0-1.41-.36-2.46-1.07-3.1-.71-.64-1.76-.97-3.12-.97Z"/>
        <path class="cls-2" d="M104.21,9.81c-.71-.64-1.76-.97-3.12-.97-.44,0-.84.03-1.18.1-.33.07-.63.15-.88.24-.26.1-.48.21-.67.34-.11.08-.22.15-.31.22-.16-.22-.37-.39-.61-.5-.3-.13-.7-.19-1.2-.19h-1.16s.17.28.17.28c0,0,.41.78.39,2.65v7.36h3.11v-7.52c0-.18,0-.34-.02-.48-.01-.15-.04-.28-.07-.39-.02-.07-.03-.13-.04-.19.16-.14.37-.26.64-.36.31-.12.68-.18,1.11-.18.52,0,.96.19,1.3.57.35.39.52,1.08.52,2.06v4.89c0,.88.71,1.59,1.59,1.59h1.52v-6.43c0-1.41-.36-2.46-1.07-3.1Z"/>
        <path class="cls-2" d="M92.21,10.25c-.17-.24-.4-.42-.68-.52-.27-.1-.6-.15-.98-.15h-1.59s.17.28.17.28c0,0,.41.78.39,2.65v6.84h3.11v-6.84c0-.53-.03-.98-.09-1.34-.06-.38-.17-.69-.34-.92Z"/>
        <path class="cls-2" d="M92.44,6.41c0,.87-.71,1.58-1.58,1.58s-1.58-.71-1.58-1.58.71-1.58,1.58-1.58,1.58.71,1.58,1.58Z"/>
      </g>
    </g>
  </g>
</svg>