<?xml version="1.0" encoding="UTF-8"?>
<svg id="_レイヤー_2" data-name="レイヤー 2" xmlns="http://www.w3.org/2000/svg" viewBox="0 0 182.22 177.22" width="182.22" height="177.22">
  <defs>
    <style>
      .cls-1 {
        fill: #7084c1;
      }

      .cls-2 {
        fill: #013591;
      }

      .cls-3 {
        fill: #e84b54;
      }

      .cls-4 {
        fill: #ea9762;
      }

      .cls-5 {
        fill: #006db7;
      }

      .cls-6 {
        fill: #aab5dc;
      }

      .cls-7 {
        fill: #872d21;
      }

      .cls-8 {
        fill: #8dc21f;
      }

      .cls-9 {
        fill: #27a867;
      }

      .cls-10 {
        fill: #7ba918;
      }

      .cls-11 {
        fill: #1f2871;
      }
    </style>
  </defs>
  <g id="_レイヤー_1-2" data-name="レイヤー 1">
    <g>
      <g>
        <path class="cls-7" d="M94.41,74.62c3.64-3.64,9.55-3.64,13.19,0-3.64,3.64-9.55,3.64-13.19,0Z"/>
        <path class="cls-7" d="M113.06,106.46c-3.64-3.64-3.64-9.55,0-13.19,3.64,3.64,3.64,9.55,0,13.19Z"/>
        <path class="cls-7" d="M113.06,93.27c3.64-3.64,9.55-3.64,13.19,0-3.64,3.64-9.55,3.64-13.19,0Z"/>
        <path class="cls-7" d="M113.06,93.27c-3.64-3.64-3.64-9.55,0-13.19,3.64,3.64,3.64,9.55,0,13.19Z"/>
        <path class="cls-7" d="M113.06,93.27c-3.64,3.64-9.55,3.64-13.19,0,3.64-3.64,9.55-3.64,13.19,0Z"/>
        <path class="cls-7" d="M113.06,111.93c-5.15,0-9.33-4.18-9.33-9.33,5.15,0,9.33,4.18,9.33,9.33Z"/>
        <path class="cls-7" d="M103.74,102.6c0-5.15,4.18-9.33,9.33-9.33,0,5.15-4.18,9.33-9.33,9.33Z"/>
        <path class="cls-7" d="M122.39,102.6c-5.15,0-9.33-4.18-9.33-9.33,5.15,0,9.33,4.18,9.33,9.33Z"/>
        <path class="cls-7" d="M122.39,102.6c0,5.15-4.18,9.33-9.33,9.33,0-5.15,4.18-9.33,9.33-9.33Z"/>
        <path class="cls-7" d="M113.06,130.58c-5.15,0-9.33-4.18-9.33-9.33,5.15,0,9.33,4.18,9.33,9.33Z"/>
        <path class="cls-7" d="M103.74,121.25c0-5.15,4.18-9.33,9.33-9.33,0,5.15-4.18,9.33-9.33,9.33Z"/>
        <path class="cls-7" d="M94.41,111.93c-5.15,0-9.33-4.18-9.33-9.33,5.15,0,9.33,4.18,9.33,9.33Z"/>
        <path class="cls-7" d="M122.39,121.25c-5.15,0-9.33-4.18-9.33-9.33,5.15,0,9.33,4.18,9.33,9.33Z"/>
        <path class="cls-7" d="M103.74,121.25c-5.15,0-9.33-4.18-9.33-9.33,5.15,0,9.33,4.18,9.33,9.33Z"/>
        <path class="cls-7" d="M122.39,121.25c0,5.15-4.18,9.33-9.33,9.33,0-5.15,4.18-9.33,9.33-9.33Z"/>
        <path class="cls-7" d="M113.06,149.24c-5.15,0-9.33-4.18-9.33-9.33,5.15,0,9.33,4.18,9.33,9.33Z"/>
        <path class="cls-7" d="M103.74,139.91c0-5.15,4.18-9.33,9.33-9.33,0,5.15-4.18,9.33-9.33,9.33Z"/>
        <path class="cls-7" d="M122.39,139.91c-5.15,0-9.33-4.18-9.33-9.33,5.15,0,9.33,4.18,9.33,9.33Z"/>
        <path class="cls-7" d="M122.39,139.91c0,5.15-4.18,9.33-9.33,9.33,0-5.15,4.18-9.33,9.33-9.33Z"/>
        <path class="cls-7" d="M113.06,167.89c-5.15,0-9.33-4.18-9.33-9.33,5.15,0,9.33,4.18,9.33,9.33Z"/>
        <path class="cls-7" d="M103.74,158.56c0-5.15,4.18-9.33,9.33-9.33,0,5.15-4.18,9.33-9.33,9.33Z"/>
        <path class="cls-7" d="M103.73,177.22c0-5.15,4.18-9.33,9.33-9.33,0,5.15-4.18,9.33-9.33,9.33Z"/>
        <path class="cls-7" d="M113.06,167.89c5.15,0,9.33,4.18,9.33,9.33-5.15,0-9.33-4.18-9.33-9.33Z"/>
        <path class="cls-7" d="M122.39,158.56c-5.15,0-9.33-4.18-9.33-9.33,5.15,0,9.33,4.18,9.33,9.33Z"/>
        <path class="cls-7" d="M122.39,158.56c0,5.15-4.18,9.33-9.33,9.33,0-5.15,4.18-9.33,9.33-9.33Z"/>
        <path class="cls-7" d="M113.06,93.27c-5.15,0-9.33-4.18-9.33-9.33,5.15,0,9.33,4.18,9.33,9.33Z"/>
        <path class="cls-7" d="M103.74,83.95c0-5.15,4.18-9.33,9.33-9.33,0,5.15-4.18,9.33-9.33,9.33Z"/>
        <path class="cls-7" d="M103.74,83.95c0,5.15-4.18,9.33-9.33,9.33,0-5.15,4.18-9.33,9.33-9.33Z"/>
        <path class="cls-7" d="M131.72,93.27c-5.15,0-9.33-4.18-9.33-9.33,5.15,0,9.33,4.18,9.33,9.33Z"/>
        <path class="cls-7" d="M122.39,83.95c-5.15,0-9.33-4.18-9.33-9.33,5.15,0,9.33,4.18,9.33,9.33Z"/>
        <path class="cls-7" d="M122.39,83.95c0,5.15-4.18,9.33-9.33,9.33,0-5.15,4.18-9.33,9.33-9.33Z"/>
        <path class="cls-7" d="M113.06,74.62c-5.15,0-9.33-4.18-9.33-9.33,5.15,0,9.33,4.18,9.33,9.33Z"/>
        <path class="cls-7" d="M103.74,65.29c0-5.15,4.18-9.33,9.33-9.33,0,5.15-4.18,9.33-9.33,9.33Z"/>
        <path class="cls-7" d="M103.74,65.29c-5.15,0-9.33-4.18-9.33-9.33,5.15,0,9.33,4.18,9.33,9.33Z"/>
        <path class="cls-7" d="M122.39,65.29c0-5.15,4.18-9.33,9.33-9.33,0,5.15-4.18,9.33-9.33,9.33Z"/>
        <path class="cls-7" d="M122.39,65.29c-5.15,0-9.33-4.18-9.33-9.33,5.15,0,9.33,4.18,9.33,9.33Z"/>
        <path class="cls-7" d="M122.39,65.29c0,5.15-4.18,9.33-9.33,9.33,0-5.15,4.18-9.33,9.33-9.33Z"/>
        <path class="cls-7" d="M94.41,111.93c3.64-3.64,9.55-3.64,13.19,0-3.64,3.64-9.55,3.64-13.19,0Z"/>
        <path class="cls-7" d="M122.39,121.25c5.15,0,9.33-4.18,9.33-9.33-5.15,0-9.33,4.18-9.33,9.33Z"/>
        <path class="cls-7" d="M131.72,111.93c-3.64-3.64-9.55-3.64-13.19,0,3.64,3.64,9.55,3.64,13.19,0Z"/>
        <path class="cls-7" d="M113.06,143.77c-3.64-3.64-3.64-9.55,0-13.19,3.64,3.64,3.64,9.55,0,13.19Z"/>
        <path class="cls-7" d="M113.06,130.58c-3.64-3.64-3.64-9.55,0-13.19,3.64,3.64,3.64,9.55,0,13.19Z"/>
        <path class="cls-7" d="M113.06,130.58c-3.64,3.64-9.55,3.64-13.19,0,3.64-3.64,9.55-3.64,13.19,0Z"/>
        <path class="cls-7" d="M113.06,167.89c3.64-3.64,9.55-3.64,13.19,0-3.64,3.64-9.55,3.64-13.19,0Z"/>
        <path class="cls-7" d="M113.06,167.89c-3.64-3.64-3.64-9.55,0-13.19,3.64,3.64,3.64,9.55,0,13.19Z"/>
        <path class="cls-7" d="M113.06,167.89c-3.64,3.64-9.55,3.64-13.19,0,3.64-3.64,9.55-3.64,13.19,0Z"/>
      </g>
      <g>
        <path class="cls-10" d="M113.06,69.15c-3.64-3.64-3.64-9.55,0-13.19,3.64,3.64,3.64,9.55,0,13.19Z"/>
        <path class="cls-10" d="M113.06,55.96c3.64-3.64,9.55-3.64,13.19,0-3.64,3.64-9.55,3.64-13.19,0Z"/>
        <path class="cls-10" d="M113.06,55.96c-3.64-3.64-3.64-9.55,0-13.19,3.64,3.64,3.64,9.55,0,13.19Z"/>
        <path class="cls-10" d="M113.06,55.96c-3.64,3.64-9.55,3.64-13.19,0,3.64-3.64,9.55-3.64,13.19,0Z"/>
        <path class="cls-10" d="M122.39,83.95c-5.15,0-9.33-4.18-9.33-9.33,5.15,0,9.33,4.18,9.33,9.33Z"/>
        <path class="cls-10" d="M113.06,74.62c0-5.15,4.18-9.33,9.33-9.33,0,5.15-4.18,9.33-9.33,9.33Z"/>
        <path class="cls-10" d="M113.06,74.62c-5.15,0-9.33-4.18-9.33-9.33,5.15,0,9.33,4.18,9.33,9.33Z"/>
        <path class="cls-10" d="M113.06,74.62c0,5.15-4.18,9.33-9.33,9.33,0-5.15,4.18-9.33,9.33-9.33Z"/>
        <path class="cls-10" d="M141.04,102.6c-5.15,0-9.33-4.18-9.33-9.33,5.15,0,9.33,4.18,9.33,9.33Z"/>
        <path class="cls-10" d="M131.72,93.27c0-5.15,4.18-9.33,9.33-9.33,0,5.15-4.18,9.33-9.33,9.33Z"/>
        <path class="cls-10" d="M131.72,93.27c-5.15,0-9.33-4.18-9.33-9.33,5.15,0,9.33,4.18,9.33,9.33Z"/>
        <path class="cls-10" d="M131.72,93.27c0,5.15-4.18,9.33-9.33,9.33,0-5.15,4.18-9.33,9.33-9.33Z"/>
        <path class="cls-10" d="M159.7,121.25c-5.15,0-9.33-4.18-9.33-9.33,5.15,0,9.33,4.18,9.33,9.33Z"/>
        <path class="cls-10" d="M150.37,111.93c0-5.15,4.18-9.33,9.33-9.33,0,5.15-4.18,9.33-9.33,9.33Z"/>
        <path class="cls-10" d="M150.37,111.93c-5.15,0-9.33-4.18-9.33-9.33,5.15,0,9.33,4.18,9.33,9.33Z"/>
        <path class="cls-10" d="M150.37,111.93c0,5.15-4.18,9.33-9.33,9.33,0-5.15,4.18-9.33,9.33-9.33Z"/>
        <path class="cls-10" d="M103.74,102.6c-5.15,0-9.33-4.18-9.33-9.33,5.15,0,9.33,4.18,9.33,9.33Z"/>
        <path class="cls-10" d="M94.41,93.27c0-5.15,4.18-9.33,9.33-9.33,0,5.15-4.18,9.33-9.33,9.33Z"/>
        <path class="cls-10" d="M94.41,93.27c-5.15,0-9.33-4.18-9.33-9.33,5.15,0,9.33,4.18,9.33,9.33Z"/>
        <path class="cls-10" d="M94.41,93.27c0,5.15-4.18,9.33-9.33,9.33,0-5.15,4.18-9.33,9.33-9.33Z"/>
        <path class="cls-10" d="M113.06,31.85c-3.64-3.64-3.64-9.55,0-13.19,3.64,3.64,3.64,9.55,0,13.19Z"/>
        <path class="cls-10" d="M113.06,18.65c3.64-3.64,9.55-3.64,13.19,0-3.64,3.64-9.55,3.64-13.19,0Z"/>
        <path class="cls-10" d="M113.06,18.65c-3.64-3.64-3.64-9.55,0-13.19,3.64,3.64,3.64,9.55,0,13.19Z"/>
        <path class="cls-10" d="M113.06,18.65c-3.64,3.64-9.55,3.64-13.19,0,3.64-3.64,9.55-3.64,13.19,0Z"/>
        <path class="cls-10" d="M103.74,27.98c-5.15,0-9.33-4.18-9.33-9.33,5.15,0,9.33,4.18,9.33,9.33Z"/>
        <path class="cls-10" d="M131.72,18.65c0,5.15-4.18,9.33-9.33,9.33,0-5.15,4.18-9.33,9.33-9.33Z"/>
        <path class="cls-10" d="M122.39,46.64c-5.15,0-9.33-4.18-9.33-9.33,5.15,0,9.33,4.18,9.33,9.33Z"/>
        <path class="cls-10" d="M113.06,37.31c0-5.15,4.18-9.33,9.33-9.33,0,5.15-4.18,9.33-9.33,9.33Z"/>
        <path class="cls-10" d="M113.06,37.31c-5.15,0-9.33-4.18-9.33-9.33,5.15,0,9.33,4.18,9.33,9.33Z"/>
        <path class="cls-10" d="M113.06,37.31c0,5.15-4.18,9.33-9.33,9.33,0-5.15,4.18-9.33,9.33-9.33Z"/>
        <path class="cls-10" d="M94.41,50.5c-3.64-3.64-3.64-9.55,0-13.19,3.64,3.64,3.64,9.55,0,13.19Z"/>
        <path class="cls-10" d="M94.41,37.31c3.64-3.64,9.55-3.64,13.19,0-3.64,3.64-9.55,3.64-13.19,0Z"/>
        <path class="cls-10" d="M94.41,37.31c-3.64-3.64-3.64-9.55,0-13.19,3.64,3.64,3.64,9.55,0,13.19Z"/>
        <path class="cls-10" d="M94.41,37.31c-3.64,3.64-9.55,3.64-13.19,0,3.64-3.64,9.55-3.64,13.19,0Z"/>
        <path class="cls-10" d="M103.74,65.29c-5.15,0-9.33-4.18-9.33-9.33,5.15,0,9.33,4.18,9.33,9.33Z"/>
        <path class="cls-10" d="M94.41,55.96c0-5.15,4.18-9.33,9.33-9.33,0,5.15-4.18,9.33-9.33,9.33Z"/>
        <path class="cls-10" d="M94.41,55.96c-5.15,0-9.33-4.18-9.33-9.33,5.15,0,9.33,4.18,9.33,9.33Z"/>
        <path class="cls-10" d="M94.41,55.96c0,5.15-4.18,9.33-9.33,9.33,0-5.15,4.18-9.33,9.33-9.33Z"/>
        <path class="cls-10" d="M131.72,50.5c-3.64-3.64-3.64-9.55,0-13.19,3.64,3.64,3.64,9.55,0,13.19Z"/>
        <path class="cls-10" d="M131.72,37.31c3.64-3.64,9.55-3.64,13.19,0-3.64,3.64-9.55,3.64-13.19,0Z"/>
        <path class="cls-10" d="M131.72,37.31c-3.64-3.64-3.64-9.55,0-13.19,3.64,3.64,3.64,9.55,0,13.19Z"/>
        <path class="cls-10" d="M131.72,37.31c-3.64,3.64-9.55,3.64-13.19,0,3.64-3.64,9.55-3.64,13.19,0Z"/>
        <path class="cls-10" d="M141.04,65.29c-5.15,0-9.33-4.18-9.33-9.33,5.15,0,9.33,4.18,9.33,9.33Z"/>
        <path class="cls-10" d="M131.72,55.96c0-5.15,4.18-9.33,9.33-9.33,0,5.15-4.18,9.33-9.33,9.33Z"/>
        <path class="cls-10" d="M131.72,55.96c-5.15,0-9.33-4.18-9.33-9.33,5.15,0,9.33,4.18,9.33,9.33Z"/>
        <path class="cls-10" d="M131.72,55.96c0,5.15-4.18,9.33-9.33,9.33,0-5.15,4.18-9.33,9.33-9.33Z"/>
        <path class="cls-10" d="M169.03,125.12c-3.64-3.64-3.64-9.55,0-13.19,3.64,3.64,3.64,9.55,0,13.19Z"/>
        <path class="cls-10" d="M169.03,111.93c-3.64-3.64-3.64-9.55,0-13.19,3.64,3.64,3.64,9.55,0,13.19Z"/>
        <path class="cls-10" d="M169.03,111.93c-3.64,3.64-9.55,3.64-13.19,0,3.64-3.64,9.55-3.64,13.19,0Z"/>
        <path class="cls-10" d="M182.22,111.93c-3.64,3.64-9.55,3.64-13.19,0,3.64-3.64,9.55-3.64,13.19,0Z"/>
        <path class="cls-10" d="M169.03,130.58c0-5.15,4.18-9.33,9.33-9.33,0,5.15-4.18,9.33-9.33,9.33Z"/>
        <path class="cls-10" d="M169.03,130.58c-5.15,0-9.33-4.18-9.33-9.33,5.15,0,9.33,4.18,9.33,9.33Z"/>
        <path class="cls-10" d="M169.03,130.58c0,5.15-4.18,9.33-9.33,9.33,0-5.15,4.18-9.33,9.33-9.33Z"/>
        <path class="cls-10" d="M150.37,143.77c-3.64-3.64-3.64-9.55,0-13.19,3.64,3.64,3.64,9.55,0,13.19Z"/>
        <path class="cls-10" d="M150.37,130.58c-3.64-3.64-3.64-9.55,0-13.19,3.64,3.64,3.64,9.55,0,13.19Z"/>
        <path class="cls-10" d="M150.37,130.58c-3.64,3.64-9.55,3.64-13.19,0,3.64-3.64,9.55-3.64,13.19,0Z"/>
        <path class="cls-10" d="M113.06,106.46c-3.64-3.64-3.64-9.55,0-13.19,3.64,3.64,3.64,9.55,0,13.19Z"/>
        <path class="cls-10" d="M113.06,93.27c3.64-3.64,9.55-3.64,13.19,0-3.64,3.64-9.55,3.64-13.19,0Z"/>
        <path class="cls-10" d="M113.06,93.27c-3.64-3.64-3.64-9.55,0-13.19,3.64,3.64,3.64,9.55,0,13.19Z"/>
        <path class="cls-10" d="M113.06,93.27c-3.64,3.64-9.55,3.64-13.19,0,3.64-3.64,9.55-3.64,13.19,0Z"/>
        <path class="cls-10" d="M122.39,121.25c-5.15,0-9.33-4.18-9.33-9.33,5.15,0,9.33,4.18,9.33,9.33Z"/>
        <path class="cls-10" d="M113.06,111.93c0-5.15,4.18-9.33,9.33-9.33,0,5.15-4.18,9.33-9.33,9.33Z"/>
        <path class="cls-10" d="M113.06,111.93c-5.15,0-9.33-4.18-9.33-9.33,5.15,0,9.33,4.18,9.33,9.33Z"/>
        <path class="cls-10" d="M113.06,111.93c0,5.15-4.18,9.33-9.33,9.33,0-5.15,4.18-9.33,9.33-9.33Z"/>
        <path class="cls-10" d="M131.72,125.12c-3.64-3.64-3.64-9.55,0-13.19,3.64,3.64,3.64,9.55,0,13.19Z"/>
        <path class="cls-10" d="M131.72,111.93c3.64-3.64,9.55-3.64,13.19,0-3.64,3.64-9.55,3.64-13.19,0Z"/>
        <path class="cls-10" d="M131.72,111.93c-3.64-3.64-3.64-9.55,0-13.19,3.64,3.64,3.64,9.55,0,13.19Z"/>
        <path class="cls-10" d="M113.06,143.77c-3.64-3.64-3.64-9.55,0-13.19,3.64,3.64,3.64,9.55,0,13.19Z"/>
        <path class="cls-10" d="M113.06,130.58c3.64-3.64,9.55-3.64,13.19,0-3.64,3.64-9.55,3.64-13.19,0Z"/>
        <path class="cls-10" d="M113.06,130.58c-3.64-3.64-3.64-9.55,0-13.19,3.64,3.64,3.64,9.55,0,13.19Z"/>
        <path class="cls-10" d="M113.06,130.58c-3.64,3.64-9.55,3.64-13.19,0,3.64-3.64,9.55-3.64,13.19,0Z"/>
        <path class="cls-10" d="M103.74,139.91c-5.15,0-9.33-4.18-9.33-9.33,5.15,0,9.33,4.18,9.33,9.33Z"/>
        <path class="cls-10" d="M94.41,130.58c0-5.15,4.18-9.33,9.33-9.33,0,5.15-4.18,9.33-9.33,9.33Z"/>
        <path class="cls-10" d="M94.41,130.58c-5.15,0-9.33-4.18-9.33-9.33,5.15,0,9.33,4.18,9.33,9.33Z"/>
        <path class="cls-10" d="M94.41,130.58c0,5.15-4.18,9.33-9.33,9.33,0-5.15,4.18-9.33,9.33-9.33Z"/>
        <path class="cls-10" d="M141.04,139.91c-5.15,0-9.33-4.18-9.33-9.33,5.15,0,9.33,4.18,9.33,9.33Z"/>
        <path class="cls-10" d="M131.72,130.58c0-5.15,4.18-9.33,9.33-9.33,0,5.15-4.18,9.33-9.33,9.33Z"/>
        <path class="cls-10" d="M131.72,130.58c-5.15,0-9.33-4.18-9.33-9.33,5.15,0,9.33,4.18,9.33,9.33Z"/>
        <path class="cls-10" d="M131.72,130.58c0,5.15-4.18,9.33-9.33,9.33,0-5.15,4.18-9.33,9.33-9.33Z"/>
        <path class="cls-10" d="M131.72,149.24c3.64-3.64,9.55-3.64,13.19,0-3.64,3.64-9.55,3.64-13.19,0Z"/>
        <path class="cls-10" d="M131.72,149.24c-3.64-3.64-3.64-9.55,0-13.19,3.64,3.64,3.64,9.55,0,13.19Z"/>
        <path class="cls-10" d="M107.6,74.62c-3.64,3.64-9.55,3.64-13.19,0,3.64-3.64,9.55-3.64,13.19,0Z"/>
        <path class="cls-10" d="M94.41,74.62c-3.64-3.64-3.64-9.55,0-13.19,3.64,3.64,3.64,9.55,0,13.19Z"/>
        <path class="cls-10" d="M94.41,74.62c-3.64,3.64-9.55,3.64-13.19,0,3.64-3.64,9.55-3.64,13.19,0Z"/>
        <path class="cls-10" d="M94.41,74.62c3.64,3.64,3.64,9.55,0,13.19-3.64-3.64-3.64-9.55,0-13.19Z"/>
        <path class="cls-10" d="M85.08,65.29c0,5.15-4.18,9.33-9.33,9.33,0-5.15,4.18-9.33,9.33-9.33Z"/>
        <path class="cls-10" d="M75.75,74.62c0,5.15-4.18,9.33-9.33,9.33,0-5.15,4.18-9.33,9.33-9.33Z"/>
        <path class="cls-10" d="M75.75,74.62c5.15,0,9.33,4.18,9.33,9.33-5.15,0-9.33-4.18-9.33-9.33Z"/>
        <path class="cls-10" d="M70.29,74.62c-3.64,3.64-9.55,3.64-13.19,0,3.64-3.64,9.55-3.64,13.19,0Z"/>
        <path class="cls-10" d="M88.94,93.27c-3.64,3.64-9.55,3.64-13.19,0,3.64-3.64,9.55-3.64,13.19,0Z"/>
        <path class="cls-10" d="M75.75,93.27c-3.64,3.64-9.55,3.64-13.19,0,3.64-3.64,9.55-3.64,13.19,0Z"/>
        <path class="cls-10" d="M75.75,93.27c-3.64-3.64-3.64-9.55,0-13.19,3.64,3.64,3.64,9.55,0,13.19Z"/>
        <path class="cls-10" d="M85.08,102.6c0,5.15-4.18,9.33-9.33,9.33,0-5.15,4.18-9.33,9.33-9.33Z"/>
        <path class="cls-10" d="M75.75,111.93c-5.15,0-9.33-4.18-9.33-9.33,5.15,0,9.33,4.18,9.33,9.33Z"/>
        <path class="cls-10" d="M75.75,111.93c0,5.15-4.18,9.33-9.33,9.33,0-5.15,4.18-9.33,9.33-9.33Z"/>
        <path class="cls-10" d="M75.75,111.93c5.15,0,9.33,4.18,9.33,9.33-5.15,0-9.33-4.18-9.33-9.33Z"/>
        <path class="cls-10" d="M88.94,55.96c-3.64,3.64-9.55,3.64-13.19,0,3.64-3.64,9.55-3.64,13.19,0Z"/>
        <path class="cls-10" d="M75.75,55.96c3.64,3.64,3.64,9.55,0,13.19-3.64-3.64-3.64-9.55,0-13.19Z"/>
        <path class="cls-10" d="M144.91,74.62c-3.64,3.64-9.55,3.64-13.19,0,3.64-3.64,9.55-3.64,13.19,0Z"/>
        <path class="cls-10" d="M131.72,74.62c-3.64-3.64-3.64-9.55,0-13.19,3.64,3.64,3.64,9.55,0,13.19Z"/>
        <path class="cls-10" d="M131.72,74.62c-3.64,3.64-9.55,3.64-13.19,0,3.64-3.64,9.55-3.64,13.19,0Z"/>
        <path class="cls-10" d="M131.72,74.62c3.64,3.64,3.64,9.55,0,13.19-3.64-3.64-3.64-9.55,0-13.19Z"/>
        <path class="cls-10" d="M150.37,74.62c-5.15,0-9.33-4.18-9.33-9.33,5.15,0,9.33,4.18,9.33,9.33Z"/>
        <path class="cls-10" d="M150.37,74.62c0,5.15-4.18,9.33-9.33,9.33,0-5.15,4.18-9.33,9.33-9.33Z"/>
        <path class="cls-10" d="M150.37,74.62c5.15,0,9.33,4.18,9.33,9.33-5.15,0-9.33-4.18-9.33-9.33Z"/>
        <path class="cls-10" d="M150.37,93.27c-3.64-3.64-3.64-9.55,0-13.19,3.64,3.64,3.64,9.55,0,13.19Z"/>
        <path class="cls-10" d="M150.37,93.27c-3.64,3.64-9.55,3.64-13.19,0,3.64-3.64,9.55-3.64,13.19,0Z"/>
        <path class="cls-10" d="M150.37,55.96c-3.64,3.64-9.55,3.64-13.19,0,3.64-3.64,9.55-3.64,13.19,0Z"/>
        <path class="cls-10" d="M150.37,55.96c3.64,3.64,3.64,9.55,0,13.19-3.64-3.64-3.64-9.55,0-13.19Z"/>
        <path class="cls-10" d="M169.03,93.27c0,5.15-4.18,9.33-9.33,9.33,0-5.15,4.18-9.33,9.33-9.33Z"/>
        <path class="cls-10" d="M70.29,111.93c-3.64,3.64-9.55,3.64-13.19,0,3.64-3.64,9.55-3.64,13.19,0Z"/>
        <path class="cls-10" d="M57.1,111.93c-3.64-3.64-3.64-9.55,0-13.19,3.64,3.64,3.64,9.55,0,13.19Z"/>
        <path class="cls-10" d="M57.1,111.93c3.64,3.64,3.64,9.55,0,13.19-3.64-3.64-3.64-9.55,0-13.19Z"/>
        <path class="cls-10" d="M66.43,139.91c-5.15,0-9.33-4.18-9.33-9.33,5.15,0,9.33,4.18,9.33,9.33Z"/>
        <path class="cls-10" d="M57.1,130.58c0-5.15,4.18-9.33,9.33-9.33,0,5.15-4.18,9.33-9.33,9.33Z"/>
        <path class="cls-10" d="M57.1,130.58c-5.15,0-9.33-4.18-9.33-9.33,5.15,0,9.33,4.18,9.33,9.33Z"/>
        <path class="cls-10" d="M75.75,130.58c3.64-3.64,9.55-3.64,13.19,0-3.64,3.64-9.55,3.64-13.19,0Z"/>
        <path class="cls-10" d="M75.75,130.58c-3.64-3.64-3.64-9.55,0-13.19,3.64,3.64,3.64,9.55,0,13.19Z"/>
        <path class="cls-10" d="M75.75,130.58c-3.64,3.64-9.55,3.64-13.19,0,3.64-3.64,9.55-3.64,13.19,0Z"/>
        <path class="cls-10" d="M75.75,149.24c0-5.15,4.18-9.33,9.33-9.33,0,5.15-4.18,9.33-9.33,9.33Z"/>
        <path class="cls-10" d="M75.75,149.24c-5.15,0-9.33-4.18-9.33-9.33,5.15,0,9.33,4.18,9.33,9.33Z"/>
      </g>
      <g>
        <path class="cls-8" d="M113.06,50.5c-3.64-3.64-3.64-9.55,0-13.19,3.64,3.64,3.64,9.55,0,13.19Z"/>
        <path class="cls-8" d="M113.06,37.31c3.64-3.64,9.55-3.64,13.19,0-3.64,3.64-9.55,3.64-13.19,0Z"/>
        <path class="cls-8" d="M113.06,37.31c-3.64-3.64-3.64-9.55,0-13.19,3.64,3.64,3.64,9.55,0,13.19Z"/>
        <path class="cls-8" d="M113.06,37.31c-3.64,3.64-9.55,3.64-13.19,0,3.64-3.64,9.55-3.64,13.19,0Z"/>
        <path class="cls-8" d="M122.39,65.29c-5.15,0-9.33-4.18-9.33-9.33,5.15,0,9.33,4.18,9.33,9.33Z"/>
        <path class="cls-8" d="M113.06,55.96c0-5.15,4.18-9.33,9.33-9.33,0,5.15-4.18,9.33-9.33,9.33Z"/>
        <path class="cls-8" d="M113.06,55.96c-5.15,0-9.33-4.18-9.33-9.33,5.15,0,9.33,4.18,9.33,9.33Z"/>
        <path class="cls-8" d="M113.06,55.96c0,5.15-4.18,9.33-9.33,9.33,0-5.15,4.18-9.33,9.33-9.33Z"/>
        <path class="cls-8" d="M141.04,83.95c-5.15,0-9.33-4.18-9.33-9.33,5.15,0,9.33,4.18,9.33,9.33Z"/>
        <path class="cls-8" d="M131.72,74.62c0-5.15,4.18-9.33,9.33-9.33,0,5.15-4.18,9.33-9.33,9.33Z"/>
        <path class="cls-8" d="M131.72,74.62c-5.15,0-9.33-4.18-9.33-9.33,5.15,0,9.33,4.18,9.33,9.33Z"/>
        <path class="cls-8" d="M131.72,74.62c0,5.15-4.18,9.33-9.33,9.33,0-5.15,4.18-9.33,9.33-9.33Z"/>
        <path class="cls-8" d="M159.7,102.6c-5.15,0-9.33-4.18-9.33-9.33,5.15,0,9.33,4.18,9.33,9.33Z"/>
        <path class="cls-8" d="M150.37,93.27c0-5.15,4.18-9.33,9.33-9.33,0,5.15-4.18,9.33-9.33,9.33Z"/>
        <path class="cls-8" d="M150.37,93.27c-5.15,0-9.33-4.18-9.33-9.33,5.15,0,9.33,4.18,9.33,9.33Z"/>
        <path class="cls-8" d="M150.37,93.27c0,5.15-4.18,9.33-9.33,9.33,0-5.15,4.18-9.33,9.33-9.33Z"/>
        <path class="cls-8" d="M103.73,83.95c-5.15,0-9.33-4.18-9.33-9.33,5.15,0,9.33,4.18,9.33,9.33Z"/>
        <path class="cls-8" d="M94.41,74.62c0-5.15,4.18-9.33,9.33-9.33,0,5.15-4.18,9.33-9.33,9.33Z"/>
        <path class="cls-8" d="M94.41,74.62c-5.15,0-9.33-4.18-9.33-9.33,5.15,0,9.33,4.18,9.33,9.33Z"/>
        <path class="cls-8" d="M94.41,74.62c0,5.15-4.18,9.33-9.33,9.33,0-5.15,4.18-9.33,9.33-9.33Z"/>
        <path class="cls-8" d="M113.06,13.19c-3.64-3.64-3.64-9.55,0-13.19,3.64,3.64,3.64,9.55,0,13.19Z"/>
        <path class="cls-8" d="M122.39,27.98c-5.15,0-9.33-4.18-9.33-9.33,5.15,0,9.33,4.18,9.33,9.33Z"/>
        <path class="cls-8" d="M113.06,18.65c0-5.15,4.18-9.33,9.33-9.33,0,5.15-4.18,9.33-9.33,9.33Z"/>
        <path class="cls-8" d="M113.06,18.65c-5.15,0-9.33-4.18-9.33-9.33,5.15,0,9.33,4.18,9.33,9.33Z"/>
        <path class="cls-8" d="M113.06,18.65c0,5.15-4.18,9.33-9.33,9.33,0-5.15,4.18-9.33,9.33-9.33Z"/>
        <path class="cls-8" d="M94.41,31.85c-3.64-3.64-3.64-9.55,0-13.19,3.64,3.64,3.64,9.55,0,13.19Z"/>
        <path class="cls-8" d="M94.41,18.65c3.64-3.64,9.55-3.64,13.19,0-3.64,3.64-9.55,3.64-13.19,0Z"/>
        <path class="cls-8" d="M103.73,46.64c-5.15,0-9.33-4.18-9.33-9.33,5.15,0,9.33,4.18,9.33,9.33Z"/>
        <path class="cls-8" d="M94.41,37.31c0-5.15,4.18-9.33,9.33-9.33,0,5.15-4.18,9.33-9.33,9.33Z"/>
        <path class="cls-8" d="M94.41,37.31c-5.15,0-9.33-4.18-9.33-9.33,5.15,0,9.33,4.18,9.33,9.33Z"/>
        <path class="cls-8" d="M94.41,37.31c0,5.15-4.18,9.33-9.33,9.33,0-5.15,4.18-9.33,9.33-9.33Z"/>
        <path class="cls-8" d="M131.72,31.85c-3.64-3.64-3.64-9.55,0-13.19,3.64,3.64,3.64,9.55,0,13.19Z"/>
        <path class="cls-8" d="M131.72,18.65c-3.64,3.64-9.55,3.64-13.19,0,3.64-3.64,9.55-3.64,13.19,0Z"/>
        <path class="cls-8" d="M141.04,46.64c-5.15,0-9.33-4.18-9.33-9.33,5.15,0,9.33,4.18,9.33,9.33Z"/>
        <path class="cls-8" d="M131.72,37.31c0-5.15,4.18-9.33,9.33-9.33,0,5.15-4.18,9.33-9.33,9.33Z"/>
        <path class="cls-8" d="M131.72,37.31c-5.15,0-9.33-4.18-9.33-9.33,5.15,0,9.33,4.18,9.33,9.33Z"/>
        <path class="cls-8" d="M131.72,37.31c0,5.15-4.18,9.33-9.33,9.33,0-5.15,4.18-9.33,9.33-9.33Z"/>
        <path class="cls-8" d="M169.03,106.46c-3.64-3.64-3.64-9.55,0-13.19,3.64,3.64,3.64,9.55,0,13.19Z"/>
        <path class="cls-8" d="M169.03,93.27c-3.64,3.64-9.55,3.64-13.19,0,3.64-3.64,9.55-3.64,13.19,0Z"/>
        <path class="cls-8" d="M169.03,149.24c-5.15,0-9.33-4.18-9.33-9.33,5.15,0,9.33,4.18,9.33,9.33Z"/>
        <path class="cls-8" d="M150.37,149.24c-3.64-3.64-3.64-9.55,0-13.19,3.64,3.64,3.64,9.55,0,13.19Z"/>
        <path class="cls-8" d="M169.03,111.93c0-5.15,4.18-9.33,9.33-9.33,0,5.15-4.18,9.33-9.33,9.33Z"/>
        <path class="cls-8" d="M169.03,111.93c-5.15,0-9.33-4.18-9.33-9.33,5.15,0,9.33,4.18,9.33,9.33Z"/>
        <path class="cls-8" d="M169.03,111.93c0,5.15-4.18,9.33-9.33,9.33,0-5.15,4.18-9.33,9.33-9.33Z"/>
        <path class="cls-8" d="M150.37,125.12c-3.64-3.64-3.64-9.55,0-13.19,3.64,3.64,3.64,9.55,0,13.19Z"/>
        <path class="cls-8" d="M150.37,111.93c-3.64-3.64-3.64-9.55,0-13.19,3.64,3.64,3.64,9.55,0,13.19Z"/>
        <path class="cls-8" d="M150.37,111.93c-3.64,3.64-9.55,3.64-13.19,0,3.64-3.64,9.55-3.64,13.19,0Z"/>
        <path class="cls-8" d="M169.03,143.77c-3.64-3.64-3.64-9.55,0-13.19,3.64,3.64,3.64,9.55,0,13.19Z"/>
        <path class="cls-8" d="M169.03,130.58c-3.64-3.64-3.64-9.55,0-13.19,3.64,3.64,3.64,9.55,0,13.19Z"/>
        <path class="cls-8" d="M169.03,130.58c-3.64,3.64-9.55,3.64-13.19,0,3.64-3.64,9.55-3.64,13.19,0Z"/>
        <path class="cls-8" d="M150.37,130.58c0-5.15,4.18-9.33,9.33-9.33,0,5.15-4.18,9.33-9.33,9.33Z"/>
        <path class="cls-8" d="M150.37,130.58c-5.15,0-9.33-4.18-9.33-9.33,5.15,0,9.33,4.18,9.33,9.33Z"/>
        <path class="cls-8" d="M150.37,130.58c0,5.15-4.18,9.33-9.33,9.33,0-5.15,4.18-9.33,9.33-9.33Z"/>
        <path class="cls-8" d="M113.06,87.81c-3.64-3.64-3.64-9.55,0-13.19,3.64,3.64,3.64,9.55,0,13.19Z"/>
        <path class="cls-8" d="M113.06,74.62c3.64-3.64,9.55-3.64,13.19,0-3.64,3.64-9.55,3.64-13.19,0Z"/>
        <path class="cls-8" d="M113.06,74.62c-3.64-3.64-3.64-9.55,0-13.19,3.64,3.64,3.64,9.55,0,13.19Z"/>
        <path class="cls-8" d="M113.06,74.62c-3.64,3.64-9.55,3.64-13.19,0,3.64-3.64,9.55-3.64,13.19,0Z"/>
        <path class="cls-8" d="M122.39,102.6c-5.15,0-9.33-4.18-9.33-9.33,5.15,0,9.33,4.18,9.33,9.33Z"/>
        <path class="cls-8" d="M113.06,93.27c0-5.15,4.18-9.33,9.33-9.33,0,5.15-4.18,9.33-9.33,9.33Z"/>
        <path class="cls-8" d="M113.06,93.27c-5.15,0-9.33-4.18-9.33-9.33,5.15,0,9.33,4.18,9.33,9.33Z"/>
        <path class="cls-8" d="M113.06,93.27c0,5.15-4.18,9.33-9.33,9.33,0-5.15,4.18-9.33,9.33-9.33Z"/>
        <path class="cls-8" d="M131.72,106.46c-3.64-3.64-3.64-9.55,0-13.19,3.64,3.64,3.64,9.55,0,13.19Z"/>
        <path class="cls-8" d="M131.72,93.27c3.64-3.64,9.55-3.64,13.19,0-3.64,3.64-9.55,3.64-13.19,0Z"/>
        <path class="cls-8" d="M131.72,93.27c-3.64-3.64-3.64-9.55,0-13.19,3.64,3.64,3.64,9.55,0,13.19Z"/>
        <path class="cls-8" d="M131.72,93.27c-3.64,3.64-9.55,3.64-13.19,0,3.64-3.64,9.55-3.64,13.19,0Z"/>
        <path class="cls-8" d="M113.06,125.12c-3.64-3.64-3.64-9.55,0-13.19,3.64,3.64,3.64,9.55,0,13.19Z"/>
        <path class="cls-8" d="M113.06,111.93c3.64-3.64,9.55-3.64,13.19,0-3.64,3.64-9.55,3.64-13.19,0Z"/>
        <path class="cls-8" d="M113.06,111.93c-3.64-3.64-3.64-9.55,0-13.19,3.64,3.64,3.64,9.55,0,13.19Z"/>
        <path class="cls-8" d="M113.06,111.93c-3.64,3.64-9.55,3.64-13.19,0,3.64-3.64,9.55-3.64,13.19,0Z"/>
        <path class="cls-8" d="M103.74,121.26c-5.15,0-9.33-4.18-9.33-9.33,5.15,0,9.33,4.18,9.33,9.33Z"/>
        <path class="cls-8" d="M94.41,111.93c0-5.15,4.18-9.33,9.33-9.33,0,5.15-4.18,9.33-9.33,9.33Z"/>
        <path class="cls-8" d="M94.41,111.93c-5.15,0-9.33-4.18-9.33-9.33,5.15,0,9.33,4.18,9.33,9.33Z"/>
        <path class="cls-8" d="M94.41,111.93c0,5.15-4.18,9.33-9.33,9.33,0-5.15,4.18-9.33,9.33-9.33Z"/>
        <path class="cls-8" d="M141.04,121.26c-5.15,0-9.33-4.18-9.33-9.33,5.15,0,9.33,4.18,9.33,9.33Z"/>
        <path class="cls-8" d="M131.72,111.93c0-5.15,4.18-9.33,9.33-9.33,0,5.15-4.18,9.33-9.33,9.33Z"/>
        <path class="cls-8" d="M131.72,111.93c-5.15,0-9.33-4.18-9.33-9.33,5.15,0,9.33,4.18,9.33,9.33Z"/>
        <path class="cls-8" d="M131.72,111.93c0,5.15-4.18,9.33-9.33,9.33,0-5.15,4.18-9.33,9.33-9.33Z"/>
        <path class="cls-8" d="M131.72,143.77c-3.64-3.64-3.64-9.55,0-13.19,3.64,3.64,3.64,9.55,0,13.19Z"/>
        <path class="cls-8" d="M131.72,130.58c3.64-3.64,9.55-3.64,13.19,0-3.64,3.64-9.55,3.64-13.19,0Z"/>
        <path class="cls-8" d="M131.72,130.58c-3.64-3.64-3.64-9.55,0-13.19,3.64,3.64,3.64,9.55,0,13.19Z"/>
        <path class="cls-8" d="M131.72,130.58c-3.64,3.64-9.55,3.64-13.19,0,3.64-3.64,9.55-3.64,13.19,0Z"/>
        <path class="cls-8" d="M107.6,55.96c-3.64,3.64-9.55,3.64-13.19,0,3.64-3.64,9.55-3.64,13.19,0Z"/>
        <path class="cls-8" d="M94.41,55.96c-3.64-3.64-3.64-9.55,0-13.19,3.64,3.64,3.64,9.55,0,13.19Z"/>
        <path class="cls-8" d="M94.41,55.96c-3.64,3.64-9.55,3.64-13.19,0,3.64-3.64,9.55-3.64,13.19,0Z"/>
        <path class="cls-8" d="M94.41,55.96c3.64,3.64,3.64,9.55,0,13.19-3.64-3.64-3.64-9.55,0-13.19Z"/>
        <path class="cls-8" d="M85.08,46.64c0,5.15-4.18,9.33-9.33,9.33,0-5.15,4.18-9.33,9.33-9.33Z"/>
        <path class="cls-8" d="M75.75,55.96c0,5.15-4.18,9.33-9.33,9.33,0-5.15,4.18-9.33,9.33-9.33Z"/>
        <path class="cls-8" d="M75.75,55.96c5.15,0,9.33,4.18,9.33,9.33-5.15,0-9.33-4.18-9.33-9.33Z"/>
        <path class="cls-8" d="M88.94,74.62c-3.64,3.64-9.55,3.64-13.19,0,3.64-3.64,9.55-3.64,13.19,0Z"/>
        <path class="cls-8" d="M75.75,74.62c-3.64,3.64-9.55,3.64-13.19,0,3.64-3.64,9.55-3.64,13.19,0Z"/>
        <path class="cls-8" d="M75.75,74.62c-3.64-3.64-3.64-9.55,0-13.19,3.64,3.64,3.64,9.55,0,13.19Z"/>
        <path class="cls-8" d="M85.08,83.95c0,5.15-4.18,9.33-9.33,9.33,0-5.15,4.18-9.33,9.33-9.33Z"/>
        <path class="cls-8" d="M75.75,93.27c-5.15,0-9.33-4.18-9.33-9.33,5.15,0,9.33,4.18,9.33,9.33Z"/>
        <path class="cls-8" d="M75.75,93.27c0,5.15-4.18,9.33-9.33,9.33,0-5.15,4.18-9.33,9.33-9.33Z"/>
        <path class="cls-8" d="M75.75,93.27c5.15,0,9.33,4.18,9.33,9.33-5.15,0-9.33-4.18-9.33-9.33Z"/>
        <path class="cls-8" d="M144.91,55.96c-3.64,3.64-9.55,3.64-13.19,0,3.64-3.64,9.55-3.64,13.19,0Z"/>
        <path class="cls-8" d="M131.72,55.96c-3.64-3.64-3.64-9.55,0-13.19,3.64,3.64,3.64,9.55,0,13.19Z"/>
        <path class="cls-8" d="M131.72,55.96c-3.64,3.64-9.55,3.64-13.19,0,3.64-3.64,9.55-3.64,13.19,0Z"/>
        <path class="cls-8" d="M131.72,55.96c3.64,3.64,3.64,9.55,0,13.19-3.64-3.64-3.64-9.55,0-13.19Z"/>
        <path class="cls-8" d="M150.37,55.96c-5.15,0-9.33-4.18-9.33-9.33,5.15,0,9.33,4.18,9.33,9.33Z"/>
        <path class="cls-8" d="M150.37,55.96c0,5.15-4.18,9.33-9.33,9.33,0-5.15,4.18-9.33,9.33-9.33Z"/>
        <path class="cls-8" d="M150.37,55.96c5.15,0,9.33,4.18,9.33,9.33-5.15,0-9.33-4.18-9.33-9.33Z"/>
        <path class="cls-8" d="M150.37,74.62c-3.64-3.64-3.64-9.55,0-13.19,3.64,3.64,3.64,9.55,0,13.19Z"/>
        <path class="cls-8" d="M150.37,74.62c-3.64,3.64-9.55,3.64-13.19,0,3.64-3.64,9.55-3.64,13.19,0Z"/>
        <path class="cls-8" d="M169.03,74.62c0,5.15-4.18,9.33-9.33,9.33,0-5.15,4.18-9.33,9.33-9.33Z"/>
        <path class="cls-8" d="M70.29,93.27c-3.64,3.64-9.55,3.64-13.19,0,3.64-3.64,9.55-3.64,13.19,0Z"/>
        <path class="cls-8" d="M66.43,121.25c-5.15,0-9.33-4.18-9.33-9.33,5.15,0,9.33,4.18,9.33,9.33Z"/>
        <path class="cls-8" d="M57.1,111.93c0-5.15,4.18-9.33,9.33-9.33,0,5.15-4.18,9.33-9.33,9.33Z"/>
        <path class="cls-8" d="M75.75,111.93c3.64-3.64,9.55-3.64,13.19,0-3.64,3.64-9.55,3.64-13.19,0Z"/>
        <path class="cls-8" d="M75.75,111.93c-3.64-3.64-3.64-9.55,0-13.19,3.64,3.64,3.64,9.55,0,13.19Z"/>
        <path class="cls-8" d="M75.75,111.93c-3.64,3.64-9.55,3.64-13.19,0,3.64-3.64,9.55-3.64,13.19,0Z"/>
        <path class="cls-8" d="M57.1,130.58c3.64-3.64,9.55-3.64,13.19,0-3.64,3.64-9.55,3.64-13.19,0Z"/>
        <path class="cls-8" d="M57.1,130.58c-3.64-3.64-3.64-9.55,0-13.19,3.64,3.64,3.64,9.55,0,13.19Z"/>
        <path class="cls-8" d="M85.08,139.91c-5.15,0-9.33-4.18-9.33-9.33,5.15,0,9.33,4.18,9.33,9.33Z"/>
        <path class="cls-8" d="M75.75,130.58c0-5.15,4.18-9.33,9.33-9.33,0,5.15-4.18,9.33-9.33,9.33Z"/>
        <path class="cls-8" d="M75.75,130.58c-5.15,0-9.33-4.18-9.33-9.33,5.15,0,9.33,4.18,9.33,9.33Z"/>
        <path class="cls-8" d="M75.75,130.58c0,5.15-4.18,9.33-9.33,9.33,0-5.15,4.18-9.33,9.33-9.33Z"/>
      </g>
      <g>
        <path class="cls-6" d="M20.15,170.07l7.27-.19,3.35-4.12.12-.16.32.16,6.6,3.32,1.22-1.44,1.09-1.28.33-.38.67-.79.83-.97s-.58-.63-1.51-1.56c-.11-.12-.22-.23-.35-.35-.99-.99-2.29-2.24-3.66-3.42-.65-.57-1.32-1.12-1.98-1.62-2.14-1.62-4.2-2.77-5.36-2.28-.37.16-.81.53-1.27,1.06-1.28,1.45-2.83,4.12-4.27,6.89-.46.9-.92,1.83-1.36,2.71-.14.29-.28.58-.43.87-.63,1.32-1.19,2.54-1.63,3.54Z"/>
        <g>
          <path class="cls-2" d="M45.34,154.78l-6.92,3.12,1.77,3.39s9.82-2.12,10.8-3.94c.98-1.82-3.78-12.83-3.78-12.83l-5.87,5.65c1.83,2.14,4,4.61,4,4.61Z"/>
          <polygon class="cls-9" points="16.52 134.08 19.59 146.84 28.7 146.85 25.63 134.08 16.52 134.08"/>
          <g>
            <g>
              <polygon class="cls-4" points="10.23 166.19 5.47 166.78 3.34 168.28 5.4 169.86 10.35 169.89 10.23 166.19"/>
              <path class="cls-1" d="M8.44,167.82c.03.28.08.54.15.78.15.54.4.98.6,1.29s.36.46.36.46l10.6-.27,7.27-.19.81-.02h16.61c1.57,0,2.86-1.37,2.85-2.94v-.03s0-.66,0-.66v-.8s-.04-2.43-.04-2.43c0,0-3.18-.19-7.18-.35-.17,0-.34,0-.51-.02-1.29-.05-2.64-.09-4-.13-3.52-.09-7.01-.11-9.15.07-.95.08-2.05.21-3.22.37-5.65.78-13.09,2.29-14.69,2.6-.13.28-.24.57-.3.83-.14.51-.17.99-.13,1.43Z"/>
              <path class="cls-11" d="M5.47,166.78c-3.03-2.55-4.08-6.57-5.12-6.31-.98.25.18,9.22,2.23,9.73,1.7.43,2.82-.34,2.82-.34-1.19-1.5.08-3.09.08-3.09Z"/>
            </g>
            <path class="cls-4" d="M40.78,134.79c-1.14-2.8-4.15-4.22-6.74-3.17-2.58,1.05-3.75,4.17-2.61,6.97.86,2.12,1.25,4.96,4.8,3.51l2.65,3.51,3.95-1.61-2.74-3.71c1.14-1.45,1.47-3.56.68-5.5Z"/>
            <path class="cls-5" d="M35.79,163.17c-.42,1.81-.59,2.03.8,3.23.93.8,2.31,1.34,3.91,1.56,2.15.3,4.7.02,7.05-.98,3.16-1.35-.35-4.89.61-17.37.05-.65.11-1.33.18-2.04.08-.77,1.08-4.61-1.77-5.78-.35-.14-.68-.24-.97-.26l-2.17-.18c-1.79-.14-3.58.12-5.23.76-.91.35-1.77.82-2.57,1.39-1.07.76-2.27,3.5-3.25,6.31l3.92,3.6c.1.16.19.75.23,1.62.09,1.91-.04,5.16-.74,8.14Z"/>
            <g>
              <path class="cls-3" d="M49.22,136.31c-1.36-.25-2.63-.78-3.65-1.69-1.76-1.58-3.99-2.94-6.42-3.84-1.6-.59-3.91-.64-5.4-.27-.69.17-1.39.23-2.1.27-.72.03-1.69.28-2.35,1.25-.07.1-.12.2-.16.31.56-.04,1.12-.1,1.67-.23,1.5-.37,3.8-.32,5.4.27,2.43.9,4.67,2.26,6.42,3.84,1.02.91,2.29,1.45,3.63,1.69,3.55.65,5.72,4.26,4.83,7.75-.15.6-.43,1.12-.79,1.56,1.71-.2,3.27-1.35,3.73-3.15.89-3.48-1.28-7.1-4.81-7.74Z"/>
              <path class="cls-3" d="M51.09,145.64c.89-3.48-1.28-7.1-4.81-7.74-1.36-.25-2.63-.78-3.65-1.69-1.76-1.58-3.99-2.94-6.42-3.84-1.6-.59-3.91-.64-5.4-.27-.55.13-1.11.19-1.67.23-.66,1.66,1.87,3.75,1.87,3.75,3.54-1.44,4.17,1.14,5.1,3.45.72,1.77,4.99,5.96,8.58,6.33,1.01.1,2,.32,2.89.81.02,0,.03.02.05.03.85.46,1.78.61,2.67.51.36-.44.64-.96.79-1.56Z"/>
              <path class="cls-3" d="M51.09,145.64c.89-3.48-1.28-7.1-4.81-7.74-1.36-.25-2.63-.78-3.65-1.69-1.76-1.58-3.99-2.94-6.42-3.84-1.6-.59-3.91-.64-5.4-.27-.55.13-1.11.19-1.67.23-.66,1.66,1.87,3.75,1.87,3.75,3.54-1.44,4.17,1.14,5.1,3.45.72,1.77,4.99,5.96,8.58,6.33,1.01.1,2,.32,2.89.81.02,0,.03.02.05.03.85.46,1.78.61,2.67.51.36-.44.64-.96.79-1.56Z"/>
            </g>
            <path class="cls-4" d="M37.03,138.39c.27.65-.05,1.4-.7,1.67-.65.27-1.4-.05-1.67-.7-.27-.65.05-1.4.7-1.67.65-.27,1.4.05,1.67.7Z"/>
          </g>
          <path class="cls-4" d="M18.87,143.9c.41.25.84,1.25,1.53,1.37.14.02.28.03.42.02-.29-.64-.52-1.35-.23-1.57.57-.42,1.85,1.95,1.85,1.95.37.57.51,1.31.51,1.31.32.48,6.17,5.06,6.17,5.06l-2.55,2.29-3.79-4.48c-.25-.25-.56-.43-.9-.54-.5-.15-1.02-.3-1.5-.53,0,0-2.23-1.29-2.45-2.45-.07-.37-.12-.63,0-1.2.16-.73.94-1.23.94-1.23Z"/>
          <path class="cls-5" d="M31.31,152.99l-5.93-4.56s-2.46.28-2.46,2.67c0,0,7.05,7.85,9.11,7.78,1.67-.06,5.61-5.13,6.44-6.28l-6.09-2.77c-.99,2.81-1.07,3.17-1.07,3.17Z"/>
        </g>
      </g>
    </g>
  </g>
</svg>